<svg width="50" height="50" viewBox="0 0 50 50" fill="none" xmlns="http://www.w3.org/2000/svg">
<circle cx="25" cy="25" r="25" fill="#252A31"/>
<g clip-path="url(#clip0_18_168)">
<path d="M33.5201 28.2101L31.7201 26.4001V21.9401C31.744 20.284 31.1679 18.675 30.0982 17.4105C29.0285 16.1459 27.5373 15.3111 25.9001 15.0601C24.9499 14.935 23.9839 15.014 23.0667 15.2917C22.1494 15.5695 21.3019 16.0397 20.5808 16.6709C19.8597 17.3021 19.2814 18.0799 18.8847 18.9523C18.4879 19.8248 18.2818 20.7717 18.2801 21.7301V26.4001L16.4801 28.2101C16.254 28.44 16.1007 28.7314 16.0393 29.0479C15.9779 29.3645 16.0112 29.6921 16.135 29.9898C16.2587 30.2875 16.4675 30.5421 16.7352 30.7218C17.0029 30.9015 17.3177 30.9983 17.6401 31.0001H21.0001V31.3401C21.0468 32.3553 21.494 33.3106 22.2438 33.9967C22.9936 34.6827 23.9847 35.0436 25.0001 35.0001C26.0154 35.0436 27.0066 34.6827 27.7563 33.9967C28.5061 33.3106 28.9534 32.3553 29.0001 31.3401V31.0001H32.3601C32.6825 30.9983 32.9972 30.9015 33.2649 30.7218C33.5326 30.5421 33.7414 30.2875 33.8652 29.9898C33.989 29.6921 34.0223 29.3645 33.9609 29.0479C33.8995 28.7314 33.7462 28.44 33.5201 28.2101ZM27.0001 31.3401C26.9446 31.8211 26.7057 32.2622 26.3331 32.5714C25.9606 32.8807 25.4831 33.0342 25.0001 33.0001C24.5171 33.0342 24.0396 32.8807 23.667 32.5714C23.2944 32.2622 23.0555 31.8211 23.0001 31.3401V31.0001H27.0001V31.3401ZM18.5101 29.0001L19.6901 27.8201C19.8772 27.6341 20.0257 27.4128 20.127 27.1691C20.2283 26.9254 20.2803 26.6641 20.2801 26.4001V21.7301C20.2806 21.0555 20.4255 20.3889 20.7049 19.7748C20.9843 19.1608 21.3918 18.6137 21.9001 18.1701C22.4015 17.7158 22.9956 17.3759 23.6414 17.1739C24.2872 16.9719 24.9691 16.9126 25.6401 17.0001C26.7966 17.1879 27.8463 17.7871 28.596 18.6875C29.3457 19.5879 29.7449 20.7288 29.7201 21.9001V26.4001C29.7186 26.6634 29.769 26.9243 29.8685 27.168C29.9681 27.4116 30.1147 27.6333 30.3001 27.8201L31.4901 29.0001H18.5101Z" fill="#FEFEFE"/>
</g>
<defs>
<clipPath id="clip0_18_168">
<rect width="24" height="24" fill="white" transform="translate(13 13)"/>
</clipPath>
</defs>
</svg>
