<svg width="23" height="24" viewBox="0 0 23 24" fill="none" xmlns="http://www.w3.org/2000/svg">
<path d="M19.0677 19.29L15.6677 15.9C16.7647 14.5025 17.3599 12.7767 17.3577 11C17.3577 9.41775 16.8885 7.87103 16.0094 6.55544C15.1304 5.23985 13.8809 4.21447 12.4191 3.60897C10.9573 3.00347 9.3488 2.84504 7.79695 3.15372C6.2451 3.4624 4.81964 4.22433 3.70082 5.34315C2.582 6.46197 1.82007 7.88743 1.51139 9.43928C1.20271 10.9911 1.36113 12.5997 1.96663 14.0615C2.57213 15.5233 3.59751 16.7727 4.91311 17.6518C6.2287 18.5308 7.77542 19 9.35767 19C11.1343 19.0022 12.8601 18.407 14.2577 17.31L17.6477 20.71C17.7406 20.8037 17.8512 20.8781 17.9731 20.9289C18.095 20.9797 18.2257 21.0058 18.3577 21.0058C18.4897 21.0058 18.6204 20.9797 18.7422 20.9289C18.8641 20.8781 18.9747 20.8037 19.0677 20.71C19.1614 20.617 19.2358 20.5064 19.2866 20.3846C19.3373 20.2627 19.3635 20.132 19.3635 20C19.3635 19.868 19.3373 19.7373 19.2866 19.6154C19.2358 19.4936 19.1614 19.383 19.0677 19.29ZM3.35767 11C3.35767 9.81332 3.70956 8.65328 4.36885 7.66658C5.02814 6.67989 5.96521 5.91085 7.06157 5.45673C8.15793 5.0026 9.36433 4.88378 10.5282 5.11529C11.6921 5.3468 12.7612 5.91825 13.6003 6.75736C14.4394 7.59648 15.0109 8.66558 15.2424 9.82946C15.4739 10.9933 15.3551 12.1997 14.9009 13.2961C14.4468 14.3925 13.6778 15.3295 12.6911 15.9888C11.7044 16.6481 10.5444 17 9.35767 17C7.76637 17 6.24025 16.3679 5.11503 15.2426C3.98981 14.1174 3.35767 12.5913 3.35767 11Z" fill="#FEFEFE"/>
</svg>
